<?xml version="1.0" encoding="UTF-8"?>
<svg width="114px" height="88px" viewBox="0 0 114 88" version="1.1" xmlns="http://www.w3.org/2000/svg" xmlns:xlink="http://www.w3.org/1999/xlink">
    <!-- Generator: sketchtool 50.2 (55047) - http://www.bohemiancoding.com/sketch -->
    <title>F6B2A71E-8096-43F3-8942-698D0FF9C1A1</title>
    <desc>Created with sketchtool.</desc>
    <defs>
        <linearGradient x1="10.6635461%" y1="97.1135356%" x2="85.3894418%" y2="23.4020959%" id="linearGradient-1">
            <stop stop-color="#572EF6" offset="0%"></stop>
            <stop stop-color="#00C887" offset="100%"></stop>
        </linearGradient>
    </defs>
    <g id="Page-1" stroke="none" stroke-width="1" fill="none" fill-rule="evenodd">
        <g id="Home" transform="translate(-1045.000000, -393.000000)" fill="url(#linearGradient-1)" fill-rule="nonzero">
            <g id="Group-13" transform="translate(674.000000, 121.000000)">
                <g id="Im-on-the-internet" transform="translate(0.000000, 56.000000)">
                    <g id="Group-9" transform="translate(371.000000, 0.000000)">
                        <g id="Group-7" transform="translate(0.000000, 216.000000)">
                            <g id="blog-bar" transform="translate(-20.000000, -16.000000)">
                                <path d="M66.7382812,52.8671875 C69.6294556,52.8671875 71.9726562,55.2103882 71.9726562,58.1015625 C71.9726562,60.9927368 69.6294556,63.3359375 66.7382812,63.3359375 C63.8471069,63.3359375 61.5039062,60.9927368 61.5039062,58.1015625 C61.5039062,55.2103882 63.8471069,52.8671875 66.7382812,52.8671875 Z M85.0585938,58.1015625 C85.0585938,60.9927368 87.4017944,63.3359375 90.2929688,63.3359375 C93.1841431,63.3359375 95.5273438,60.9927368 95.5273438,58.1015625 C95.5273438,55.2103882 93.1841431,52.8671875 90.2929688,52.8671875 C87.4017944,52.8671875 85.0585938,55.2103882 85.0585938,58.1015625 Z M37.9492188,58.1015625 C37.9492188,60.9927368 40.2924194,63.3359375 43.1835938,63.3359375 C46.0747681,63.3359375 48.4179688,60.9927368 48.4179688,58.1015625 C48.4179688,55.2103882 46.0747681,52.8671875 43.1835938,52.8671875 C40.2924194,52.8671875 37.9492188,55.2103882 37.9492188,58.1015625 Z M129.39743,107.190186 C135.523285,113.31604 135.523285,123.27771 129.400497,129.400497 C126.339615,132.46138 122.317734,133.992844 118.296875,133.992844 C114.276016,133.992844 110.254135,132.46138 107.193253,129.400497 L78.4593963,100.731048 C77.8490601,100.121735 77.399231,99.3723602 77.148758,98.5463104 L70.8899993,77.9431152 C70.3348695,76.1161956 70.8184357,74.1328582 72.1515656,72.7659912 C73.4846955,71.4001465 75.4557648,70.8685303 77.2959748,71.3776549 L98.4226074,77.2295228 C99.2926179,77.4707945 100.08493,77.9318694 100.723892,78.5698089 L129.39743,107.190186 Z M86.7832795,94.2473755 L106.173981,113.595138 L113.577759,106.191361 L94.3015594,86.9519653 L83.6733245,84.0076294 L86.7832795,94.2473755 Z M121.997742,114.596008 L120.987671,113.58696 L113.584915,120.989715 L114.591919,121.993652 C116.636597,124.039352 119.957153,124.039352 121.997742,121.997742 C124.039352,119.957153 124.039352,116.636597 121.997742,114.596008 Z M69.9116211,108.470154 C68.9444887,108.51207 67.9650879,108.533539 67,108.533539 C58.5830842,108.533539 50.4800262,106.966293 42.9167634,103.875763 C41.6286164,103.350281 40.1830291,103.358459 38.9010163,103.899277 L15.0672301,113.960114 L23.097702,94.9374543 C23.8828582,93.0778198 23.5281068,90.9309082 22.1847534,89.421936 C14.520279,80.8117982 10.46875,70.5096893 10.46875,59.6320037 C10.46875,32.5236663 35.8288881,10.46875 67,10.46875 C98.1711119,10.46875 123.53125,32.5236663 123.53125,59.6320037 C123.53125,66.0604705 121.952759,72.5144957 118.838714,78.8131257 C117.557724,81.4047545 118.619934,84.5443572 121.211563,85.825348 C123.803192,87.1063386 126.942795,86.0441284 128.223786,83.4524993 C132.056534,75.6980591 134,67.6839446 134,59.6320037 C134,26.7505189 103.94426,-1.13686838e-13 67,-1.13686838e-13 C30.0567627,-1.13686838e-13 0,26.7505189 0,59.6320037 C0,72.0431976 4.20794678,83.7970277 12.2057038,93.8210602 L0.412002629,121.757492 C-0.416091984,123.71936 0.0276032148,125.98793 1.5335083,127.493835 C2.53540039,128.495728 3.8736419,129.027344 5.23539727,129.027344 C5.92138672,129.027344 6.61351007,128.892395 7.26985175,128.615341 L41.0131683,114.371094 C49.2429963,117.445267 57.9747925,119.002289 67,119.002289 C68.116394,119.002289 69.2501678,118.97673 70.3696289,118.92868 C73.2577361,118.801911 75.4966584,116.358521 75.3698884,113.470413 C75.2441406,110.582306 72.795639,108.336227 69.9116211,108.470154 Z" id="Shape"></path>
                            </g>
                        </g>
                    </g>
                </g>
            </g>
        </g>
    </g>
</svg>