<?xml version="1.0" encoding="UTF-8"?>
<svg width="113px" height="88px" viewBox="0 0 113 88" version="1.1" xmlns="http://www.w3.org/2000/svg" xmlns:xlink="http://www.w3.org/1999/xlink">
    <!-- Generator: sketchtool 50.2 (55047) - http://www.bohemiancoding.com/sketch -->
    <title>EE8789A5-4D6F-4CFF-9104-3D4F0E28A0AA</title>
    <desc>Created with sketchtool.</desc>
    <defs>
        <linearGradient x1="10.6635461%" y1="97.1135356%" x2="85.3894418%" y2="23.4020959%" id="linearGradient-1">
            <stop stop-color="#572EF6" offset="0%"></stop>
            <stop stop-color="#00C887" offset="100%"></stop>
        </linearGradient>
    </defs>
    <g id="Page-1" stroke="none" stroke-width="1" fill="none" fill-rule="evenodd">
        <g id="Home" transform="translate(-1045.000000, -285.000000)" fill="url(#linearGradient-1)" fill-rule="nonzero">
            <g id="Group-13" transform="translate(674.000000, 121.000000)">
                <g id="Im-on-the-internet" transform="translate(0.000000, 56.000000)">
                    <g id="Group-9" transform="translate(371.000000, 0.000000)">
                        <g id="Group-6" transform="translate(0.000000, 108.000000)">
                            <g id="podcast-bar" transform="translate(-21.000000, -23.000000)">
                                <path d="M134,67 C134,30.0567826 103.94613,0 67,0 C30.0538696,0 0,30.0567826 0,67 C0,90.2198696 12.1415652,111.796783 31.8162609,123.973304 L29.348913,129.98 C28.8886522,131.104435 29.1683043,132.394913 30.0596957,133.219304 C30.6131739,133.732 31.3239565,134 32.0434783,134 C32.4833478,134 32.9319565,133.898043 33.3426957,133.69413 L67,116.865478 L100.657304,133.69413 C101.068043,133.898043 101.513739,134 101.956522,134 C102.676043,134 103.386826,133.732 103.940304,133.219304 C104.831696,132.392 105.111348,131.101522 104.651087,129.98 L102.183739,123.973304 C121.858435,111.796783 134,90.2198696 134,67 Z M64.0869565,111.808435 L37.6831304,125.019087 L48.6623913,98.2744348 L51.1821739,100.071783 L64.0869565,109.282826 L64.0869565,111.808435 Z M79.4357826,70.5364348 C82.6576087,67.270913 84.4782609,62.913 84.4782609,58.2608696 C84.4782609,48.6216087 76.6392609,40.7826087 67,40.7826087 C57.3607391,40.7826087 49.5217391,48.6216087 49.5217391,58.2608696 C49.5217391,62.910087 51.3394783,67.2621739 54.5613043,70.5306087 L45.4580435,90.7413043 L44.6686087,92.663913 C44.6686087,92.6668261 44.6686087,92.6697391 44.6656957,92.6726522 L40.8379565,101.991478 C29.8062609,93.7650435 23.3043478,80.9301739 23.3043478,67 C23.3043478,42.9062174 42.9062174,23.3043478 67,23.3043478 C91.0937826,23.3043478 110.695652,42.9062174 110.695652,67 C110.695652,80.9301739 104.193739,93.7650435 93.1591304,101.994391 L89.3343043,92.6755652 C89.3343043,92.6726522 89.3343043,92.6697391 89.3313913,92.6668261 L79.4357826,70.5364348 Z M83.0566957,92.7454783 L72.290087,100.427174 L69.9130435,102.125478 L69.9130435,75.4944348 C70.7927826,75.3458696 71.6579565,75.1186522 72.5027391,74.839 C72.764913,74.7516087 73.0096087,74.635087 73.2659565,74.5360435 C73.7174783,74.3641739 74.1777391,74.2126957 74.6117826,74.0029565 L83.0566957,92.7454783 Z M64.0869565,102.128391 L50.9433043,92.7483913 L59.3882174,74.0029565 C59.8193478,74.2097826 60.2708696,74.3583478 60.7165652,74.5302174 C60.9787391,74.6321739 61.2321739,74.7516087 61.5001739,74.841913 C62.3449565,75.1215652 63.2072174,75.3487826 64.0869565,75.4973478 L64.0869565,102.128391 Z M60.0815217,67.6292174 C60.0145217,67.5796957 59.9358696,67.5447391 59.8688696,67.4923043 C56.9966087,65.2492609 55.3478261,61.8846957 55.3478261,58.2608696 C55.3478261,51.8346957 60.5738261,46.6086957 67,46.6086957 C73.4261739,46.6086957 78.6521739,51.8346957 78.6521739,58.2608696 C78.6521739,61.8876087 77.0033913,65.255087 74.1282174,67.4923043 C70.1606522,70.5655652 64.1073478,70.5917826 60.0815217,67.6292174 Z M69.9130435,111.808435 L69.9130435,109.282826 L82.8178261,100.071783 L85.3376087,98.2744348 L96.3197826,125.019087 L69.9130435,111.808435 Z M99.9436087,118.517174 L95.4342174,107.535 C108.676913,98.2598696 116.521739,83.2926522 116.521739,67 C116.521739,39.6931304 94.3068696,17.4782609 67,17.4782609 C39.6931304,17.4782609 17.4782609,39.6931304 17.4782609,67 C17.4782609,83.2926522 25.323087,98.2598696 38.5657826,107.535 L34.0563913,118.517174 C16.5693913,107.310696 5.82608696,87.8777826 5.82608696,67 C5.82608696,33.2669565 33.2698696,5.82608696 67,5.82608696 C100.73013,5.82608696 128.173913,33.2669565 128.173913,67 C128.173913,87.8777826 117.430609,107.310696 99.9436087,118.517174 Z" id="Shape"></path>
                            </g>
                        </g>
                    </g>
                </g>
            </g>
        </g>
    </g>
</svg>