<?xml version="1.0" encoding="UTF-8"?>
<svg width="114px" height="88px" viewBox="0 0 114 88" version="1.1" xmlns="http://www.w3.org/2000/svg" xmlns:xlink="http://www.w3.org/1999/xlink">
    <!-- Generator: sketchtool 50.2 (55047) - http://www.bohemiancoding.com/sketch -->
    <title>815C04FB-275C-4915-9553-B4CF6E52F10B</title>
    <desc>Created with sketchtool.</desc>
    <defs>
        <linearGradient x1="10.6635461%" y1="97.1135356%" x2="85.3894418%" y2="23.4020959%" id="linearGradient-1">
            <stop stop-color="#572EF6" offset="0%"></stop>
            <stop stop-color="#00C887" offset="100%"></stop>
        </linearGradient>
    </defs>
    <g id="Page-1" stroke="none" stroke-width="1" fill="none" fill-rule="evenodd">
        <g id="Home" transform="translate(-1045.000000, -177.000000)" fill="url(#linearGradient-1)" fill-rule="nonzero">
            <g id="Group-13" transform="translate(674.000000, 121.000000)">
                <g id="Im-on-the-internet" transform="translate(0.000000, 56.000000)">
                    <g id="Group-9" transform="translate(371.000000, 0.000000)">
                        <g id="Group-4">
                            <g id="project-bar" transform="translate(-20.000000, -16.000000)">
                                <path d="M0,73.5390727 L0,55.4462212 C0,53.7890169 1.36829746,52.4334325 3.04439955,52.4334325 L35.1763357,52.4334325 L21.1868027,76.5558912 L3.04439955,76.5558912 C1.36829746,76.5558912 0,75.2030967 0,73.5390727 Z M22.8887628,110.587477 L12.6343204,117.500244 C11.2544959,118.433313 10.2787428,117.842783 10.4700302,116.195188 L11.8383277,104.368156 C12.0286806,102.720561 13.3714315,102.047574 14.8235341,102.870906 L22.7594724,107.381874 C24.2090826,108.209237 24.2685874,109.657198 22.8887628,110.587477 Z M25.3511998,103.920841 L17.4152614,99.4083226 C15.964405,98.5837503 15.4531627,96.7346625 16.2971331,95.2966209 L53.0448924,31.9133627 C53.8785819,30.4731511 55.7578101,29.9681781 57.2077318,30.8036 L65.1436702,35.3043386 C66.5954612,36.1397605 67.0936187,37.9903983 66.2617985,39.42534 L29.5146623,102.812938 C28.682219,104.25098 26.8014331,104.744173 25.3511998,103.920841 Z M53.3187389,76.5558912 L67.3082719,52.4334325 L75.3635313,52.4334325 L86.7233288,76.5558912 L53.3187389,76.5558912 Z M98.8819228,83.7544691 C95.7051174,82.1760022 79.8827761,46.0126185 75.8289768,36.5771558 C71.7708158,27.1413832 59.5172011,2.02509794 63.4809645,0.0706136749 C66.3001183,-1.3305392 76.4234011,18.4471056 84.0122804,30.3206363 C91.5902557,42.1947869 107.437209,72.8102872 109.387157,76.2967399 C111.327137,79.7921823 107.520391,82.7060843 105.403455,83.578395 C103.284339,84.4507057 102.057482,85.3202264 98.8819228,83.7544691 Z M109.279364,100.37673 L104.498734,92.8954416 C103.509896,91.338674 104.023319,89.4173586 105.626832,88.5971262 L110.183773,86.2753043 C111.790401,85.4622016 113.801412,86.1218594 114.656287,87.7496147 L118.427516,94.935483 C119.285506,96.5601384 118.701051,98.6466782 117.153928,99.5651773 L113.895498,101.495482 C112.348687,102.425141 110.26789,101.918618 109.279364,100.37673 Z M126.874074,120 C125.875266,116.830047 118.249002,116.620494 114.834801,111.847584 C111.409384,107.090484 114.240376,104.639707 115.429537,103.508555 C129.277629,95.7814446 126.874074,120 126.874074,120 Z M134,73.5390727 C134,75.2027867 132.632014,76.5555812 130.9556,76.5555812 L114.871563,76.5555812 C114.694295,75.6253025 114.406429,74.6950238 113.920422,73.8227131 C113.501708,73.0802881 112.443396,71.0780654 110.968862,68.2875393 C108.840088,64.2598448 105.782603,58.4996185 102.509531,52.4334325 L130.954043,52.4334325 C132.630768,52.4334325 133.998754,53.7890169 133.998754,55.4462212 L133.998754,73.5390727 L134,73.5390727 Z" id="App_Store"></path>
                            </g>
                        </g>
                    </g>
                </g>
            </g>
        </g>
    </g>
</svg>