<?xml version="1.0" encoding="UTF-8"?>
<svg width="111px" height="88px" viewBox="0 0 111 88" version="1.1" xmlns="http://www.w3.org/2000/svg" xmlns:xlink="http://www.w3.org/1999/xlink">
    <!-- Generator: sketchtool 50.2 (55047) - http://www.bohemiancoding.com/sketch -->
    <title>D6D3B3ED-4397-43AA-A625-BCD98819DAD8</title>
    <desc>Created with sketchtool.</desc>
    <defs>
        <linearGradient x1="10.6635461%" y1="97.1135356%" x2="85.3894418%" y2="23.4020959%" id="linearGradient-1">
            <stop stop-color="#572EF6" offset="0%"></stop>
            <stop stop-color="#00C887" offset="100%"></stop>
        </linearGradient>
    </defs>
    <g id="Page-1" stroke="none" stroke-width="1" fill="none" fill-rule="evenodd">
        <g id="Home" transform="translate(-1045.000000, -501.000000)" fill="url(#linearGradient-1)" fill-rule="nonzero">
            <g id="Group-13" transform="translate(674.000000, 121.000000)">
                <g id="Im-on-the-internet" transform="translate(0.000000, 56.000000)">
                    <g id="Group-9" transform="translate(371.000000, 0.000000)">
                        <g id="Group-7-Copy" transform="translate(0.000000, 324.000000)">
                            <g id="social-bar" transform="translate(-20.000000, -11.000000)">
                                <path d="M123.987967,98.495 L102.1616,89.0413 C101.647933,88.7844667 101.078433,88.1569 100.589333,87.3194 L115.161833,87.3082333 C115.416433,87.3328 121.4241,87.8822 126.2414,85.8119 C128.066033,85.0257667 129.4239,83.4736 129.968833,81.5529333 C130.518233,79.6144 130.169833,77.5619667 129.017433,75.9182333 C124.852267,69.9909667 115.130567,54.5028 114.826833,38.7935333 C114.820133,38.5233 113.9402,11.8081667 87.5578333,11.5915333 C83.6740667,11.6228 80.0828667,12.2816333 76.8155,13.4965667 C76.1030667,11.6808667 75.0534,9.787 73.4923,8.0048 C68.9072667,2.76986667 61.4635667,0.116666667 51.3666667,0.116666667 C41.2697667,0.116666667 33.8260667,2.76986667 29.2388,8.00033333 C23.9502667,14.0325667 24.4416,21.3467333 24.5666667,22.5728333 L24.5666667,34.4519333 C23.1373333,36.0800333 22.3333333,38.1637333 22.3333333,40.3144333 L22.3333333,49.2477667 C22.3333333,51.9657333 23.5683667,54.5005667 25.6766333,56.1912 C27.7223667,64.2915 32.0036667,70.3952 33.5,72.3538333 L33.5,79.7439333 C33.5,81.9058 32.3208,83.889 30.4247,84.9252667 L10.5011333,95.7926667 C4.02223333,99.3302667 0,106.1062 0,113.485133 L0,122.95 L98.2666667,122.95 L102.733333,122.95 L134,122.95 L134,114.693367 C134,107.7879 130.163133,101.5837 123.987967,98.495 Z M98.2666667,118.483333 L4.46666667,118.483333 L4.46666667,113.485133 C4.46666667,107.743233 7.5978,102.465867 12.6384333,99.7188667 L32.562,88.8514667 C35.8963667,87.0313 37.9666667,83.5406 37.9666667,79.7461667 L37.9666667,70.7704 L37.4463,70.1495333 C37.3927,70.0847667 31.9188,63.4629333 29.8306333,54.3710333 L29.6274,53.4866333 L28.8658333,52.9953 C27.5727333,52.1600333 26.8,50.7597333 26.8,49.25 L26.8,40.3166667 C26.8,39.0637667 27.3315333,37.8957333 28.2963333,37.0225 L29.0333333,36.3592 L29.0333333,22.45 L29.0132333,22.1574333 C29.0065333,22.0971333 28.2472,15.9063333 32.5977333,10.9438667 C36.2983667,6.72286667 42.6142333,4.58333333 51.3666667,4.58333333 C60.0878333,4.58333333 66.3903,6.70723333 70.0954,10.8992 C71.9379,12.9806667 72.8647333,15.3055667 73.3270333,17.3021667 C73.3627667,17.4585 73.3962667,17.6126 73.4275333,17.7667 C73.4588,17.9252667 73.4923,18.0838333 73.5168667,18.2357 C73.5459,18.4099 73.5704667,18.5751667 73.5950333,18.7404333 C73.6129,18.8588 73.6307667,18.9794 73.6441667,19.0933 C73.6776667,19.3702333 73.7044667,19.6382333 73.7223333,19.8861333 C73.7245667,19.9062333 73.7245667,19.9241 73.7245667,19.9442 C73.7402,20.1854 73.7513667,20.4132 73.7580667,20.6209 C73.7580667,20.6611 73.7580667,20.6946 73.7603,20.7348 C73.7647667,20.9201667 73.7647667,21.0966 73.7625333,21.2507 C73.7625333,21.2730333 73.7625333,21.2953667 73.7625333,21.3177 C73.7536,21.8425333 73.7178667,22.1552 73.7178667,22.1619 L73.7,36.3592 L74.437,37.0247333 C75.4018,37.8957333 75.9333333,39.0637667 75.9333333,40.3166667 L75.9333333,49.25 C75.9333333,51.1997 74.6558667,52.9059667 72.7575333,53.4911 L71.6453333,53.8328 L71.288,54.9383 C69.7939,59.5858667 67.6655333,63.8783333 64.9587333,67.6973333 C64.2954333,68.6375667 63.65,69.4706 63.0894333,70.1071 L62.5333333,70.7413667 L62.5333333,79.9538667 C62.5333333,80.5189 62.5891667,81.0727667 62.6762667,81.6177 C62.6941333,81.7338333 62.7254,81.8455 62.7477333,81.9616333 C62.8348333,82.4105333 62.9509667,82.8505 63.0939,83.2793 C63.1274,83.3798 63.1631333,83.4758333 63.2011,83.5763333 C63.3753,84.0431 63.5785333,84.4942333 63.8152667,84.9275 C63.8420667,84.9766333 63.8666333,85.028 63.8934333,85.0771333 C64.2172667,85.6488667 64.5902333,86.1915667 65.0190333,86.6918333 L65.5282333,87.3194 L65.6153333,87.3194 C66.3813667,88.0742667 67.2613,88.7308667 68.2618333,89.2311333 L89.5968667,99.8975333 C94.9457,102.5686 98.2666667,107.942 98.2666667,113.920633 L98.2666667,118.483333 Z M129.533333,118.483333 L102.733333,118.483333 L102.733333,113.920633 C102.733333,106.2402 98.4654333,99.3369667 91.5979333,95.9021 L76.2817333,88.2417667 C76.6591667,87.3797 76.7083,86.3925667 76.3777667,85.4411667 C75.8306,83.8666667 74.4012667,82.8505 72.7374333,82.8505 L67.7861333,82.8505 C67.6834,82.6696 67.6164,82.4708333 67.5337667,82.2787667 C67.4221,82.0219333 67.2903333,81.7695667 67.2166333,81.4993333 C67.0804,81.0035333 67,80.4854 67,79.9538667 L67,72.4029667 C67.5114333,71.7776333 68.0496667,71.0652 68.6057667,70.2790667 C71.3728667,66.3707333 73.5905667,62.0202 75.2030333,57.3279667 C78.3542667,55.883 80.4,52.7675 80.4,49.25 L80.4,40.3166667 C80.4,38.1659667 79.596,36.0822667 78.1666667,34.4541667 L78.1666667,22.5750667 C78.2247333,22.0167333 78.3498,20.1876333 77.9790667,17.7979667 C80.8556,16.6679 84.0783,16.085 87.5600667,16.0559667 C109.5383,16.2368667 110.340067,37.9672 110.3624,38.8828667 C110.6907,55.8182333 120.9618,72.2198333 125.3637,78.4843333 C125.741133,79.0203333 125.855033,79.6948 125.674133,80.3313 C125.5714,80.6975667 125.2766,81.3631 124.4793,81.7048 C120.7273,83.3195 115.637533,82.8616667 115.376233,82.8505 L100.0042,82.8505 C98.5681667,82.8505 97.2594333,83.5808 96.5023333,84.8024333 C95.7474667,86.0196 95.676,87.507 96.3102667,88.7844667 C97.0093,90.1937 98.2443333,92.0764 100.274433,93.0881 L122.042733,102.517233 C126.6635,104.851067 129.533333,109.5098 129.533333,114.693367 L129.533333,118.483333 Z" id="Shape"></path>
                            </g>
                        </g>
                    </g>
                </g>
            </g>
        </g>
    </g>
</svg>