<?xml version="1.0" encoding="UTF-8"?>
<svg width="37px" height="30px" viewBox="0 0 37 30" version="1.1" xmlns="http://www.w3.org/2000/svg" xmlns:xlink="http://www.w3.org/1999/xlink">
    <!-- Generator: sketchtool 50.2 (55047) - http://www.bohemiancoding.com/sketch -->
    <title>E9296C6B-6367-4463-B56A-57EE2A422449</title>
    <desc>Created with sketchtool.</desc>
    <defs></defs>
    <g id="Page-1" stroke="none" stroke-width="1" fill="none" fill-rule="evenodd">
        <g id="Home" transform="translate(-829.000000, -2116.000000)" fill="#FFFFFF" fill-rule="nonzero">
            <g id="Group-18" transform="translate(0.000000, 1879.000000)">
                <g id="Group-17" transform="translate(829.000000, 237.000000)">
                    <g id="twitter-footer">
                        <path d="M37,3.54947206 C35.6381922,4.15180269 34.1769921,4.56029643 32.6417314,4.74266725 C34.2093369,3.80564814 35.4092997,2.31940441 35.9780245,0.553871407 C34.5075744,1.42161132 32.8844688,2.05170191 31.1550182,2.39327002 C29.7701156,0.918552701 27.8002252,0 25.615287,0 C21.4235187,0 18.0247729,3.39256798 18.0247729,7.57442383 C18.0247729,8.16752126 18.0918204,8.74679906 18.2213206,9.30073081 C11.9140195,8.98450874 6.32114595,5.96814847 2.57791271,1.38467852 C1.92357994,2.50171488 1.5513424,3.80329458 1.5513424,5.19268022 C1.5513424,7.82136672 2.89235277,10.1407711 4.92699334,11.49775 C3.68307791,11.4562308 2.5131626,11.1146627 1.48895015,10.5469113 L1.48895015,10.6415365 C1.48895015,14.3110402 4.10622076,17.3735665 7.57660879,18.0705827 C6.94077605,18.2413668 6.2703011,18.335992 5.57667088,18.335992 C5.08654099,18.335992 4.61255329,18.2875328 4.1478156,18.1952007 C5.11423058,21.2069746 7.9165015,23.3971142 11.2366523,23.4571602 C8.64017915,25.4881024 5.36627838,26.6951173 1.81034283,26.6951173 C1.19766536,26.6951173 0.594177441,26.6581845 0,26.5912588 C3.3594483,28.744526 7.34777671,30 11.6343425,30 C25.5969078,30 33.2290772,18.4560236 33.2290772,8.44451731 L33.2036245,7.46368576 C34.6948721,6.40198826 35.9849771,5.06806217 37,3.54947206 Z" id="Shape"></path>
                    </g>
                </g>
            </g>
        </g>
    </g>
</svg>